<?xml version="1.0" encoding="UTF-8"?>
<svg width="174px" height="68px" viewBox="0 0 174 68" version="1.1" xmlns="http://www.w3.org/2000/svg" xmlns:xlink="http://www.w3.org/1999/xlink">
    <title>Logo</title>
    <defs>
        <filter id="filter-1">
            <feColorMatrix in="SourceGraphic" type="matrix" values="0 0 0 0 1.000000 0 0 0 0 1.000000 0 0 0 0 1.000000 0 0 0 1.000000 0"></feColorMatrix>
        </filter>
    </defs>
    <g id="Page-1" stroke="none" stroke-width="1" fill="none" fill-rule="evenodd">
        <g id="Logo">
            <path d="M106.631601,16.0295017 L106.631601,14.4739535 C106.286581,14.7463787 105.37455,15.4301661 104.454495,15.4301661 C103.291054,15.4301661 102.124938,14.3404651 102.124938,14.3404651 L102.087494,14.3758804 L102.087494,14.3758804 C101.542366,14.8643922 100.890306,15.2128249 100.185869,15.3920266 L100.185869,15.3920266 C100.127028,15.3920266 100.062838,15.4138206 99.9986486,15.4219934 L99.9986486,15.4219934 C99.9344587,15.4219934 99.875618,15.4219934 99.8087536,15.4219934 C98.6453122,15.4219934 97.4818709,14.3322924 97.4818709,14.3322924 L97.4818709,14.3322924 C97.4818709,14.3322924 96.3184295,15.4219934 95.1523136,15.4219934 C94.6236242,15.3947083 94.1106675,15.2296146 93.6625738,14.9425249 C93.4043979,14.7832822 93.1769023,14.5774106 92.9912548,14.3350166 C92.8071626,14.1020638 92.6658228,13.8372053 92.5740207,13.5531561 L92.5740207,13.5531561 L88.3588861,0 L83.6302326,15.1740864 L68,15.0651163 L80.706919,24.3275748 L75.7776722,39.4308306 L88.3588861,30.0021927 L100.929402,39.4444518 L96.5163483,25.915814 C96.0875552,26.1505226 95.6119641,26.2828077 95.1255679,26.3026578 C93.9621265,26.3026578 92.7960106,25.3083056 92.7960106,25.3083056 C92.7960106,25.3083056 91.6325693,26.3026578 90.4664534,26.3026578 C89.3003375,26.3026578 88.1368961,25.2129568 88.1368961,25.2129568 C88.1368961,25.2129568 88.1368961,25.3028571 88.1368961,25.3028571 L88.1368961,23.532093 L88.1368961,23.532093 C88.1368961,23.532093 89.303012,24.621794 90.4664534,24.621794 C91.6298947,24.621794 92.7960106,23.532093 92.7960106,23.532093 C92.7960106,23.532093 93.9621265,24.621794 95.1255679,24.621794 C96.1419074,24.621794 97.1609216,23.8045183 97.4016336,23.5838538 L97.4016336,21.7041196 C97.1528978,21.9002658 96.1419074,22.6521595 95.1282424,22.6521595 C93.9621265,22.6521595 92.7986852,21.6550831 92.7986852,21.6550831 C92.7986852,21.6550831 91.6325693,22.6521595 90.4691279,22.6521595 C89.3056866,22.6521595 88.1395707,21.5624585 88.1395707,21.5624585 C88.1395707,21.5624585 88.1395707,21.6523588 88.1395707,21.6523588 L88.1395707,19.8815947 L88.1395707,19.8815947 C88.1395707,19.8815947 89.303012,20.9712957 90.4691279,20.9712957 C91.6352439,20.9712957 92.7986852,19.8815947 92.7986852,19.8815947 C92.7986852,19.8815947 93.9594519,20.9712957 95.1282424,20.9712957 C96.2970329,20.9712957 97.4604743,19.8815947 97.4604743,19.8815947 L97.4604743,19.8815947 C97.4604743,19.8815947 98.621241,20.9712957 99.7846824,20.9712957 C99.8479344,20.974782 99.9113253,20.974782 99.9745774,20.9712957 L99.9745774,20.9712957 C100.038767,20.9712957 100.100283,20.9576744 100.164472,20.9440532 L100.164472,20.9440532 C100.529452,20.8674834 100.879882,20.7313314 101.202209,20.5408638 L102.047375,19.9224585 L102.047375,18.0154817 C101.494581,18.452593 100.856144,18.7638054 100.175171,18.9281063 L100.175171,18.9281063 C100.110981,18.9281063 100.049466,18.9499003 99.9852757,18.9553488 L99.9852757,18.9553488 C99.9237604,18.9553488 99.8622451,18.9553488 99.7980552,18.9553488 L99.7980552,18.9553488 C98.6346139,18.9553488 97.468498,17.9582724 97.468498,17.9582724 C97.468498,17.9582724 96.3023821,18.9553488 95.1362662,18.9553488 C93.9701503,18.9553488 92.8067089,17.9582724 92.8067089,17.9582724 C92.8067089,17.9582724 91.640593,18.9553488 90.4771517,18.9553488 C89.3137103,18.9553488 88.1475944,17.8656478 88.1475944,17.8656478 C88.1475944,17.8656478 88.1475944,17.9555482 88.1475944,17.9555482 L88.1475944,16.1847841 L88.1475944,16.1847841 L88.1475944,16.2365449 C88.1475944,16.2365449 88.1475944,16.2120266 88.1475944,16.1875083 C88.1475944,16.16299 89.3163849,17.2772093 90.4771517,17.2772093 C90.9944846,17.2507732 91.4968431,17.0914561 91.9374711,16.8140864 C92.2459017,16.6505764 92.5386972,16.4581382 92.8120581,16.2392691 C93.0629769,16.4449669 93.3315115,16.627315 93.6144314,16.7841196 C94.0710397,17.0811364 94.595279,17.2528721 95.1362662,17.2826578 C95.6524858,17.2568253 96.1539099,17.09845 96.5939111,16.8222591 C96.8969525,16.6571049 97.1843553,16.4637684 97.4524505,16.2447176 C97.7192841,16.4589198 98.0048822,16.6476873 98.3056408,16.8086379 C98.7495571,17.091163 99.256628,17.2542647 99.7793332,17.2826578 C99.8435231,17.2826578 99.9077129,17.2826578 99.9692282,17.2826578 L99.9692282,17.2826578 L100.159123,17.2554153 L100.159123,17.2554153 C100.603836,17.1575626 101.027173,16.9775112 101.408151,16.724186 C101.650959,16.5856492 101.883388,16.4290325 102.103541,16.2556146 C102.354932,16.4606566 102.623408,16.6429648 102.905915,16.8004651 C103.360241,17.0952384 103.881781,17.2651185 104.419726,17.2935548 C104.917564,17.2705101 105.401949,17.1216529 105.829228,16.8603987 C106.098213,16.7208691 106.355796,16.5596228 106.599507,16.378206 L106.599507,16.3373422 L106.599507,16.3373422 L106.599507,16.0485714 L106.631601,16.0295017 Z" id="Star" fill="#FFFFFF" fill-rule="nonzero"></path>
            <g filter="url(#filter-1)" id="American-Water">
                <g transform="translate(0.000000, 52.000000)">
                    <path d="M6.87259507,0.781678848 C7.10938435,0.119140642 7.18926508,-1.13686838e-14 7.30623328,-1.13686838e-14 C7.42320148,-1.13686838e-14 7.5030822,0.098799557 7.73987149,0.723561462 C8.02515979,1.48489922 11.1262436,9.76953267 12.3273073,12.8177896 C13.0376752,14.6019934 13.6082518,14.9245449 14.0247727,15.0436855 C14.2794078,15.1258365 14.5450684,15.1670139 14.8121684,15.165732 C14.9291366,15.165732 15.0090173,15.1831672 15.0090173,15.2877785 C15.0090173,15.3923898 14.8321385,15.4476013 14.6153194,15.4476013 C14.3300311,15.4476013 12.8807666,15.4476013 11.5227943,15.4069192 C11.1490666,15.3894839 10.9322475,15.3894839 10.9322475,15.2645316 C10.9322475,15.1860731 10.9921581,15.1453909 11.0691859,15.1279557 C11.1462138,15.1105205 11.3059752,14.9071096 11.189007,14.5845581 L9.35745613,9.64458029 C9.33283524,9.5674845 9.26000053,9.51722848 9.18057739,9.52253378 L4.93263465,9.52253378 C4.83563663,9.52253378 4.77857897,9.5864629 4.73863861,9.68526246 L3.56610371,13.2333289 C3.40043278,13.6621973 3.30408794,14.1155775 3.28081541,14.5758405 C3.28081541,14.9768505 3.69448344,15.1570144 4.03112363,15.1570144 L4.22511967,15.1570144 C4.36491094,15.1570144 4.4219686,15.1976966 4.4219686,15.2790609 C4.4219686,15.3604252 4.3050004,15.4388837 4.1366803,15.4388837 C3.66310173,15.4388837 2.81579549,15.3807663 2.60182927,15.3807663 C2.38786304,15.3807663 1.30091463,15.4388837 0.373727669,15.4388837 C0.116968202,15.4388837 3.88430029e-14,15.3982016 3.88430029e-14,15.2790609 C3.88430029e-14,15.1599203 0.0770278401,15.1570144 0.176878744,15.1570144 C0.276729648,15.1570144 0.590546774,15.1337674 0.747455337,15.1163322 C1.65181924,14.9942857 2.04836997,14.2300421 2.39927458,13.230423 L6.87259507,0.781678848 Z M8.9266708,8.80478405 C9.02366882,8.80478405 9.02366882,8.7437608 9.00655153,8.66530233 L7.1350603,3.24585604 C7.0352094,2.9552691 6.93821138,2.9552691 6.849772,3.24585604 L5.11521916,8.66530233 C5.07813168,8.76410188 5.11521916,8.80478405 5.1751297,8.80478405 L8.9266708,8.80478405 Z" id="Shape" fill="#AD073D" fill-rule="nonzero"></path>
                    <path d="M29.9210366,13.2333289 C29.9780942,13.8348439 30.0979153,14.7560044 30.8054303,15.0000975 C31.1696518,15.1126679 31.5489027,15.1665922 31.9294662,15.1599203 C32.0093469,15.1599203 32.0664045,15.2006024 32.0664045,15.2790609 C32.0664045,15.3575194 31.909496,15.4388837 31.7126471,15.4388837 C31.3160963,15.4388837 29.3875474,15.3982016 28.7599132,15.3400842 C28.3462452,15.2964961 28.2663644,15.2383787 28.2663644,15.1599203 C28.2677194,15.0903805 28.3163703,15.0311569 28.3833326,15.0175327 C28.4831835,15.0000975 28.5031537,14.7269457 28.4632134,14.4160177 L27.6358773,5.78849169 L27.5959369,5.78849169 L23.4193163,14.5060997 C23.0655588,15.2470963 22.9685608,15.409825 22.8087993,15.409825 C22.6490379,15.409825 22.5520399,15.2500022 22.2182525,14.6281462 C21.7646442,13.7854441 20.6206381,11.6002303 20.1869999,10.6761639 C19.6763338,9.59518051 18.2784212,6.72418162 17.9817213,6.02677298 L17.9046935,6.02677298 L17.234266,13.7302326 C17.2142958,13.9917608 17.2142958,14.3114064 17.2142958,14.6019934 C17.2098831,14.8466642 17.3891788,15.0544797 17.6279639,15.0814618 C17.8468136,15.1417198 18.0718005,15.1758508 18.2983913,15.1831672 C18.3583019,15.1831672 18.4381826,15.2412846 18.4381826,15.3023079 C18.4381826,15.4214485 18.3212144,15.4621307 18.1215126,15.4621307 C17.4710553,15.4621307 16.6465721,15.4069192 16.5067808,15.4069192 C16.3669896,15.4069192 15.5225362,15.4621307 15.0489577,15.4621307 C14.8749318,15.4621307 14.7636694,15.4214485 14.7636694,15.3023079 C14.7636694,15.2383787 14.8435501,15.1831672 14.9405481,15.1831672 C15.1128697,15.1745646 15.2844292,15.1541776 15.454067,15.122144 C16.0246436,15.0204385 16.0417609,14.3985825 16.1244945,13.7592913 L17.3826159,2.624 C17.405439,2.4438361 17.4824668,2.33341307 17.5823177,2.33341307 C17.7408292,2.33853241 17.8805901,2.44070771 17.9360752,2.59203544 L23.1739683,13.1839291 L28.2178654,2.60947065 C28.2948933,2.44964784 28.374774,2.31888372 28.5031537,2.31888372 C28.6315335,2.31888372 28.7199728,2.45545958 28.7599132,2.77801107 L29.9210366,13.2333289 Z" id="Shape" fill="#AD073D" fill-rule="nonzero"></path>
                    <path d="M34.2574187,7.48261351 C34.2574187,4.83246069 34.2574187,4.35299225 34.2174783,3.80959468 C34.1775379,3.26619712 34.0805399,2.93783389 33.5099633,2.86518715 C33.3701721,2.84775194 33.079178,2.82741085 32.9165637,2.82741085 C32.844856,2.81427187 32.7895883,2.75563209 32.7796253,2.68211739 C32.7796253,2.58331783 32.859506,2.54554153 33.0649136,2.54554153 C33.8523093,2.54554153 34.9763452,2.5862237 35.0619317,2.5862237 C35.1475182,2.5862237 38.8020612,2.60656478 39.198612,2.5862237 C39.4615807,2.56664256 39.7234225,2.53366813 39.9831548,2.48742414 C40.0630355,2.4728948 40.1400633,2.40896567 40.2199441,2.40896567 C40.2998248,2.40896567 40.2969719,2.48742414 40.2969719,2.56878848 C40.2969719,2.65015282 40.1999739,2.88843411 40.1571806,3.37080842 C40.1372105,3.53063123 40.100123,4.29487486 40.0601826,4.49537984 C40.0402124,4.57674419 39.9803019,4.67263787 39.9032741,4.67263787 C39.8262462,4.67263787 39.7634828,4.59708527 39.7634828,4.45469767 C39.764223,4.25104186 39.7314358,4.0487008 39.6664848,3.85608859 C39.5495166,3.56550166 39.3811965,3.45507863 38.4283336,3.33303212 C38.1430453,3.29234994 36.1203512,3.27200886 35.9235023,3.27200886 C35.8464745,3.27200886 35.8265043,3.33303212 35.8265043,3.45217276 L35.8265043,8.08412846 C35.8265043,8.2032691 35.8265043,8.26719823 35.9235023,8.26719823 C36.1403214,8.26719823 38.4283336,8.26719823 38.8191785,8.22651606 C39.2100235,8.18583389 39.489606,8.16839867 39.6750434,7.9853289 C39.7948645,7.86618826 39.8718923,7.76448283 39.9318029,7.76448283 C39.9917134,7.76448283 40.0288009,7.80516501 40.0288009,7.90396456 C39.9675196,8.2162084 39.9218148,8.53141526 39.8918625,8.84837209 C39.8519222,9.1883588 39.8148347,9.83055592 39.8148347,9.94969657 C39.8148347,10.0688372 39.7748943,10.2722481 39.6579261,10.2722481 C39.5409579,10.2722481 39.5409579,10.2112248 39.5409579,10.1124252 C39.5497352,9.92222905 39.5236127,9.73203351 39.4639301,9.55159247 C39.4040195,9.31040532 39.247111,9.10990033 38.5738306,9.02853599 C38.1031049,8.96751274 36.2515839,8.94717165 35.954884,8.94717165 C35.9226055,8.94217537 35.8899177,8.95310905 35.8668314,8.97662422 C35.843745,9.00013938 35.8330107,9.03343428 35.8379158,9.06631229 L35.8379158,10.4901883 C35.8379158,11.0713621 35.8179456,13.0589767 35.8379158,13.3960576 C35.8778562,14.5409701 36.1945262,14.7618162 37.906256,14.7618162 C38.3598644,14.7618162 39.1872004,14.7618162 39.6408088,14.5816523 C40.0944172,14.4014884 40.3312065,14.0818427 40.4282045,13.3960576 C40.4681449,13.1984585 40.5052324,13.1345293 40.6050833,13.1345293 C40.7049342,13.1345293 40.7249044,13.2740111 40.7249044,13.3960576 C40.6772887,13.9485037 40.5982259,14.4976682 40.4881151,15.0407796 C40.3711469,15.4824718 40.2028268,15.4824718 39.5238406,15.4824718 C38.222926,15.4824718 37.2187112,15.4417896 36.5111962,15.4243544 C35.8036812,15.4069192 35.3272498,15.3865781 35.0847547,15.3865781 C35.0448144,15.3865781 34.7081742,15.3865781 34.3344465,15.4040133 C33.9607188,15.4214485 33.6041085,15.4446955 33.3302317,15.4446955 C33.153353,15.4446955 33.0449434,15.4040133 33.0449434,15.3023079 C33.0441206,15.2645542 33.0586811,15.2281385 33.0851656,15.2017127 C33.11165,15.1752869 33.1476942,15.1612099 33.1847347,15.1628261 C33.3629914,15.1460293 33.5401594,15.1188635 33.7153709,15.0814618 C34.0491582,15.0204385 34.0919515,14.6804518 34.1661264,14.1777364 C34.2663132,12.9504079 34.3005989,11.7184209 34.2688302,10.4872824 L34.2574187,7.48261351 Z" id="Shape" fill="#AD073D" fill-rule="nonzero"></path>
                    <path d="M44.2795965,7.48261351 C44.2795965,4.83246069 44.2795965,4.35299225 44.2396562,3.80959468 C44.1997158,3.26619712 44.1027178,2.93783389 43.5321412,2.86518715 C43.3923499,2.84775194 43.0956501,2.82741085 42.9387415,2.82741085 C42.8674803,2.81547261 42.8120521,2.75783873 42.8018032,2.68502326 C42.8018032,2.5862237 42.878831,2.5484474 43.0870914,2.5484474 C43.87734,2.5484474 45.0384634,2.58912957 45.1354614,2.58912957 C45.315193,2.58912957 46.7730162,2.5484474 47.3007996,2.5484474 C48.4020124,2.5484474 49.6258992,2.65015282 50.533116,3.28944408 C51.2631087,3.8350099 51.7060589,4.69235354 51.7341797,5.61413953 C51.7341797,6.87819269 51.2235137,8.10156368 49.605929,9.50800443 C51.0323705,11.3125493 52.2305814,12.8555659 53.2347962,13.9220199 C54.1591302,14.8838627 54.7297068,15.0436855 55.1604922,15.1047087 C55.3625613,15.1449903 55.5679596,15.165425 55.773862,15.165732 C55.8537702,15.1637229 55.9219135,15.224298 55.9307706,15.3052137 C55.9307706,15.4069192 55.8337725,15.4476013 55.5171025,15.4476013 L54.4358599,15.4476013 C53.4516153,15.4476013 53.0094184,15.3488018 52.5843388,15.1076146 C51.8340306,14.7036988 51.2035435,13.8813378 50.2192989,12.5969435 C49.4918137,11.6757829 48.7243882,10.562835 48.3478076,10.1095194 C48.2910028,10.0367963 48.2017947,9.99847978 48.1110184,10.007814 L45.9057398,9.96713178 C45.828712,9.96713178 45.7887716,10.007814 45.7887716,10.1066135 L45.7887716,10.5076235 C45.7887716,12.1552514 45.7887716,13.4774219 45.8657995,14.1777364 C45.92571,14.6804518 46.022708,15.0030033 46.5561971,15.0814618 C46.8109908,15.1252843 47.0682755,15.1524612 47.3264755,15.1628261 C47.3638497,15.1578123 47.4013613,15.1710058 47.4277349,15.1984409 C47.4541086,15.225876 47.4662691,15.2643536 47.460561,15.3023079 C47.460561,15.3865781 47.3835332,15.4446955 47.1752727,15.4446955 C46.2309685,15.4446955 45.1269028,15.3865781 45.047022,15.3865781 C45.0270519,15.3865781 43.8659285,15.4446955 43.3352923,15.4446955 C43.1584135,15.4446955 43.050004,15.4040133 43.050004,15.3023079 C43.0492176,15.2650752 43.0633923,15.2291302 43.0892457,15.2027967 C43.1150991,15.1764631 43.1503886,15.1620252 43.1869424,15.1628261 C43.3681717,15.1564862 43.5481067,15.1291896 43.7232844,15.0814618 C44.0570717,15.0030033 44.097012,14.6804518 44.1740399,14.1777364 C44.2699601,12.9501728 44.3023376,11.7183152 44.2710379,10.4872824 L44.2795965,7.48261351 Z M45.7773601,8.93554817 C45.7739997,9.0253566 45.8187964,9.10993662 45.8943283,9.15639424 C46.1510878,9.29878184 47.0354815,9.41792248 47.8057599,9.41792248 C48.2582242,9.45657416 48.7116126,9.35530022 49.1066745,9.12733555 C49.6972213,8.72632558 50.1508297,7.82260022 50.1508297,6.51205316 C50.1508297,4.38786268 49.0096765,3.16158583 47.1610083,3.16158583 C46.745373,3.15959678 46.3302887,3.19264272 45.9200042,3.26038538 C45.8379766,3.29349258 45.7838265,3.37392812 45.7830659,3.46379623 L45.7773601,8.93554817 Z" id="Shape" fill="#AD073D" fill-rule="nonzero"></path>
                    <path d="M58.4812479,10.4901883 C58.4812479,12.1349103 58.4812479,13.4803278 58.5611287,14.1806423 C58.6210392,14.6833577 58.6780969,15.0059092 59.1916158,15.0843677 C59.4522781,15.1272656 59.7152018,15.1544344 59.9790115,15.165732 C60.0160519,15.1641158 60.0520962,15.1781928 60.0785806,15.2046186 C60.105065,15.2310444 60.1196255,15.2674601 60.1188358,15.3052137 C60.1188358,15.3894839 60.038922,15.4476013 59.8335145,15.4476013 C58.86924,15.4476013 57.748057,15.3894839 57.6681763,15.3894839 C57.5882956,15.3894839 56.4842299,15.4476013 55.9564465,15.4476013 C55.7795678,15.4476013 55.6711582,15.4069192 55.6711582,15.3052137 C55.6695698,15.2682561 55.6830889,15.2322806 55.7084982,15.2058487 C55.7339075,15.1794169 55.7689346,15.1648924 55.8052437,15.165732 C55.9855153,15.1591732 56.1644813,15.1318785 56.3387328,15.0843677 C56.6725201,15.0059092 56.7324307,14.6833577 56.7894883,14.1806423 C56.8665162,13.4803278 56.8864864,12.1465338 56.8864864,10.4901883 L56.8864864,7.48261351 C56.8864864,4.83246069 56.8864864,4.35299225 56.846546,3.80959468 C56.8066056,3.26619712 56.6696673,2.96979845 56.2930867,2.88843411 C56.1182442,2.8531102 55.9406689,2.83366144 55.7624505,2.83031672 C55.6860315,2.82587165 55.6254787,2.76293545 55.6226592,2.68502326 C55.6226592,2.5862237 55.7025399,2.5484474 55.9079475,2.5484474 C56.4785241,2.5484474 57.5626196,2.58912957 57.6596176,2.58912957 C57.7566157,2.58912957 58.8606814,2.5484474 59.3913176,2.5484474 C59.5881665,2.5484474 59.6766059,2.58912957 59.6766059,2.68502326 C59.6675135,2.75896409 59.6118287,2.81804643 59.5396675,2.83031672 C59.3951533,2.82699128 59.2507118,2.8396576 59.1088822,2.86809302 C58.6324507,2.96979845 58.5383056,3.20807973 58.4955124,3.81250055 C58.4755422,4.35589812 58.4755422,4.83536656 58.4755422,7.48551938 L58.4812479,10.4901883 Z" id="Shape" fill="#AD073D" fill-rule="nonzero"></path>
                    <path d="M63.5451152,13.8406556 C61.8533556,12.3586622 61.4396876,10.4088239 61.4396876,8.78734884 C61.4717815,7.03919677 62.1694144,5.37212372 63.3853538,4.13795792 C64.4323618,3.11509192 66.0071532,2.31307198 68.6660401,2.31307198 C69.5103356,2.31518786 70.3533084,2.38123626 71.1879887,2.5106711 C71.7724951,2.64146316 72.365551,2.72886889 72.9624819,2.77219934 C73.1393606,2.77219934 73.179301,2.85065781 73.179301,2.95236323 C73.179301,3.05406866 73.1393606,3.29234994 73.0994203,3.91420598 C73.0794501,4.47503876 73.0794501,5.41944629 73.0594799,5.65772757 C73.0395097,5.89600886 72.9624819,6.02096124 72.8654839,6.02096124 C72.7684858,6.02096124 72.7228397,5.9018206 72.7228397,5.65772757 C72.7369825,5.00957229 72.4722654,4.38750404 71.9982074,3.95488815 C71.3876905,3.43183167 70.1267162,3.01048062 68.5747479,3.01048062 C66.3494992,3.01048062 65.2853738,3.61780731 64.6748569,4.19898117 C63.4167355,5.38748173 63.1314472,6.92178073 63.1314472,8.64496124 C63.1314472,11.9169701 65.6733659,14.8228394 69.376408,14.8228394 C70.6744697,14.8228394 71.5417462,14.7240399 72.229291,14.0208195 C72.5665913,13.6099467 72.7971255,13.1193313 72.8997185,12.5940377 C72.9396588,12.4138738 72.959629,12.3557564 73.0765972,12.3557564 C73.1935654,12.3557564 73.2335058,12.474897 73.2335058,12.5940377 C73.1410384,13.3315636 73.0028733,14.0623953 72.8198377,14.7821573 C72.7199868,15.1047087 72.6800465,15.1628261 72.3861995,15.2848726 C71.6786845,15.5754596 70.3891814,15.6655415 69.2480283,15.6655415 C66.6490519,15.6655415 64.8945288,15.0436855 63.5422623,13.8406556" id="Shape" fill="#AD073D" fill-rule="nonzero"></path>
                    <path d="M79.4328204,2.88843411 C79.6496396,2.32760133 79.7181087,2.22299003 79.8464885,2.22299003 C80.0262201,2.22299003 80.0861306,2.46998893 80.2630094,2.84775194 C80.5768265,3.56840753 83.3555345,10.6122348 84.4196599,13.1984585 C85.050147,14.7240399 85.5265785,14.9419801 85.9003061,15.0640266 C86.1246148,15.1307505 86.3570265,15.164988 86.5907038,15.165732 C86.6877018,15.165732 86.8075229,15.2064142 86.8075229,15.3023079 C86.8075229,15.3982016 86.6078211,15.4446955 86.4138251,15.4446955 C86.1570656,15.4446955 84.8732683,15.4446955 83.6722045,15.4040133 C83.3384172,15.3865781 83.0616876,15.3865781 83.0616876,15.2848726 C83.0616876,15.1831672 83.1016279,15.2035083 83.1815087,15.165732 C83.2673818,15.1304331 83.3339966,15.0589235 83.3640997,14.9697243 C83.3942028,14.8805251 83.3848331,14.7824107 83.3384172,14.7007929 L81.7807431,10.7894928 C81.7436556,10.7110343 81.7208326,10.6906932 81.6238346,10.6906932 L77.6297984,10.6906932 C77.5472192,10.6909447 77.475434,10.7484805 77.4557726,10.830175 L76.4658222,13.5587863 C76.3196768,13.9225049 76.2338731,14.308428 76.2119156,14.7007929 C76.2119156,15.0407796 76.4972039,15.165732 76.8024624,15.165732 L76.9622238,15.165732 C77.0991622,15.165732 77.1362497,15.2238494 77.1362497,15.3023079 C77.1362497,15.3807663 77.0392516,15.4446955 76.8794902,15.4446955 C76.4658222,15.4446955 75.5243708,15.3865781 75.324669,15.3865781 C75.1249672,15.3865781 74.2805138,15.4446955 73.5729988,15.4446955 C73.3561797,15.4446955 73.2363586,15.4040133 73.2363586,15.3023079 C73.2453297,15.220669 73.3156286,15.1605723 73.3961201,15.165732 C73.5159412,15.165732 73.7698478,15.142485 73.9067861,15.1250498 C74.6970347,15.0204385 75.030822,14.4189236 75.3674622,13.5558804 L79.4328204,2.88843411 Z M81.3642222,9.99037874 C81.4441029,9.99037874 81.4441029,9.94969657 81.4269856,9.86833223 L79.7152559,5.19569435 C79.6182578,4.93416611 79.5184069,4.93416611 79.4299676,5.19569435 L77.8123829,9.86833223 C77.7924127,9.9467907 77.8123829,9.99037874 77.8694406,9.99037874 L81.3642222,9.99037874 Z" id="Shape" fill="#AD073D" fill-rule="nonzero"></path>
                    <path d="M88.8815688,13.12 C88.9215092,14.520629 89.0784178,14.9448859 89.5519963,15.0640266 C89.8331529,15.1274485 90.1199221,15.1615262 90.4078612,15.165732 C90.4444008,15.1641468 90.4799905,15.1778331 90.5063844,15.2036199 C90.5327783,15.2294066 90.5476856,15.2650559 90.5476525,15.3023079 C90.5476525,15.4040133 90.4306843,15.4446955 90.2338354,15.4446955 C89.2495907,15.4446955 88.5591931,15.3894839 88.4022845,15.3894839 C88.2453759,15.3894839 87.5207437,15.4446955 86.7304951,15.4446955 C86.5536163,15.4446955 86.4452067,15.4272602 86.4452067,15.3023079 C86.4452067,15.2650559 86.460081,15.2294066 86.4864749,15.2036199 C86.5128687,15.1778331 86.5484584,15.1641468 86.584998,15.165732 C86.824122,15.1626015 87.0618779,15.128424 87.292513,15.0640266 C87.7261512,14.9448859 87.7832089,14.4828527 87.7832089,12.9398361 L87.7832089,3.17030343 C87.7832089,2.48742414 87.8802069,2.29854264 88.0228511,2.29854264 C88.2168471,2.29854264 88.5135469,2.63852935 88.6904257,2.81869324 C88.975714,3.10928018 91.486251,5.82917386 94.1651081,8.63043189 C95.8768379,10.4378826 97.7312118,12.4632735 98.261848,13.0241063 L98.0821164,4.47794463 C98.0621462,3.37662016 97.9622953,2.99013953 97.4316591,2.89133998 C97.1488251,2.84242222 96.8626583,2.81618886 96.5757942,2.81288151 C96.5354828,2.81246497 96.4973105,2.79434261 96.4710748,2.76316586 C96.4448391,2.7319891 96.4330947,2.69079357 96.4388558,2.65015282 C96.4388558,2.55135327 96.5757942,2.53101218 96.7726431,2.53101218 C97.5600388,2.53101218 98.3873749,2.57169435 98.5870767,2.57169435 C98.7867785,2.57169435 99.3487964,2.53101218 100.059164,2.53101218 C100.236043,2.53101218 100.372981,2.55135327 100.372981,2.65015282 C100.356212,2.74549411 100.274067,2.81439949 100.178985,2.81288151 C100.040196,2.81118551 99.9015968,2.82384247 99.7653174,2.85065781 C99.1947408,2.97270432 99.1576533,3.31269103 99.1576533,4.33555703 L99.11486,14.3259358 C99.11486,15.4505072 99.0977427,15.5522126 98.9779217,15.5522126 C98.79819,15.5522126 98.6241642,15.409825 97.6570368,14.5060997 C97.483011,14.3462769 94.9810326,11.8385116 93.1494818,9.89739092 C91.1524637,7.74704762 89.1925331,5.66063344 88.659044,5.05911849 L88.8815688,13.12 Z" id="Shape" fill="#AD073D" fill-rule="nonzero"></path>
                    <path d="M122.591234,12.6783079 L122.668262,12.6783079 C123.198898,10.830175 125.010479,5.01553045 125.700876,2.44674197 C125.834255,2.03167102 125.907301,1.59895803 125.917696,1.16234773 C125.917696,0.799114064 125.700876,0.56083278 124.796513,0.56083278 C124.710535,0.56958835 124.632848,0.50832654 124.619634,0.421351052 C124.619634,0.319645626 124.719485,0.278963455 124.956274,0.278963455 C125.960489,0.278963455 126.787825,0.339986711 126.953292,0.339986711 C127.118759,0.339986711 127.934684,0.278963455 128.550906,0.278963455 C128.727785,0.278963455 128.836195,0.319645626 128.836195,0.398104097 C128.836195,0.476562569 128.779137,0.56083278 128.659316,0.56083278 C128.432374,0.563957191 128.206875,0.598165811 127.988889,0.662538206 C127.398342,0.880478405 127.084525,1.72318051 126.710797,2.82741085 C125.854932,5.37585825 123.857914,11.7542414 123.087636,14.0004784 C122.574117,15.4824718 122.477119,15.7265648 122.257447,15.7265648 C122.037775,15.7265648 121.94363,15.4650365 121.669753,14.6833577 L117.804096,3.52772536 L117.764156,3.52772536 C117.056641,5.45431672 114.354961,12.7945426 113.647446,14.6630166 C113.333629,15.5057187 113.233778,15.7265648 112.996989,15.7265648 C112.760199,15.7265648 112.7117,15.5057187 112.309444,14.1399601 L108.803251,2.24333112 C108.489433,1.17978295 108.232674,0.880478405 107.722008,0.679973422 C107.433084,0.5986957 107.134494,0.558600653 106.834761,0.56083278 C106.73491,0.56083278 106.65503,0.540491694 106.65503,0.421351052 C106.65503,0.30221041 106.771998,0.278963455 106.9717,0.278963455 C107.993032,0.278963455 109.077127,0.339986711 109.293946,0.339986711 C109.510766,0.339986711 110.338102,0.278963455 111.322346,0.278963455 C111.607635,0.278963455 111.676104,0.339986711 111.676104,0.421351052 C111.676104,0.502715393 111.579106,0.56083278 111.482108,0.56083278 C111.221039,0.54763597 110.960037,0.588155883 110.714682,0.679973422 C110.547009,0.778949632 110.447861,0.965219656 110.457923,1.16234773 C110.547206,1.78356566 110.672958,2.39877543 110.834503,3.00466888 C111.119792,4.29196899 113.179573,11.6554419 113.470567,12.7160842 L113.510507,12.7160842 L117.687128,1.28148837 C117.972416,0.459127353 118.060856,0.357421927 118.177824,0.357421927 C118.294792,0.357421927 118.434583,0.618950166 118.671373,1.29892359 L122.591234,12.6783079 Z" id="Shape" fill="#AD073D" fill-rule="nonzero"></path>
                    <path d="M132.311006,2.88843411 C132.524972,2.32760133 132.596295,2.22299003 132.724674,2.22299003 C132.901553,2.22299003 132.961464,2.46998893 133.138342,2.84775194 C133.452159,3.56840753 136.230867,10.6122348 137.29214,13.1984585 C137.922627,14.7240399 138.393353,14.9419801 138.769933,15.0640266 C138.993308,15.1305563 139.224751,15.1647927 139.457478,15.165732 C139.560182,15.165732 139.674297,15.2064142 139.674297,15.3023079 C139.674297,15.3982016 139.477448,15.4446955 139.280599,15.4446955 C139.026693,15.4446955 137.745748,15.4446955 136.541832,15.4040133 C136.208044,15.3865781 135.931315,15.3865781 135.931315,15.2848726 C135.931315,15.1831672 135.974108,15.2035083 136.048283,15.165732 C136.134819,15.1312267 136.202108,15.0597455 136.232318,14.9702298 C136.262528,14.8807141 136.252609,14.7822003 136.205191,14.7007929 L134.65037,10.7894928 C134.61043,10.7110343 134.59046,10.6906932 134.493462,10.6906932 L130.499426,10.6906932 C130.416133,10.6906505 130.34337,10.7480295 130.322547,10.830175 L129.335449,13.5587863 C129.187969,13.9222173 129.101186,14.308208 129.07869,14.7007929 C129.07869,15.0407796 129.363978,15.165732 129.669237,15.165732 L129.826145,15.165732 C129.963084,15.165732 130.005877,15.2238494 130.005877,15.3023079 C130.005877,15.3807663 129.906026,15.4446955 129.749117,15.4446955 C129.335449,15.4446955 128.388292,15.3865781 128.194296,15.3865781 C128.0003,15.3865781 127.150141,15.4446955 126.442626,15.4446955 C126.225807,15.4446955 126.108839,15.4040133 126.108839,15.3023079 C126.116383,15.2211103 126.185829,15.1606638 126.265747,15.165732 C126.382715,15.165732 126.642328,15.142485 126.779266,15.1250498 C127.566662,15.0204385 127.900449,14.4189236 128.237089,13.5558804 L132.311006,2.88843411 Z M134.242408,9.99037874 C134.322289,9.99037874 134.322289,9.94969657 134.302319,9.86833223 L132.590589,5.19569435 C132.490738,4.93416611 132.39374,4.93416611 132.3053,5.19569435 L130.690569,9.86833223 C130.673451,9.9467907 130.690569,9.99037874 130.750479,9.99037874 L134.242408,9.99037874 Z" id="Shape" fill="#AD073D" fill-rule="nonzero"></path>
                    <path d="M144.253174,10.4901883 C144.253174,12.1349103 144.253174,13.4803278 144.330202,14.1806423 C144.38726,14.6833577 144.467141,15.0059092 144.997777,15.0843677 C145.259274,15.1282129 145.523204,15.1553872 145.788025,15.165732 C145.825588,15.160951 145.863213,15.1741012 145.88998,15.2013654 C145.916747,15.2286296 145.929658,15.2669539 145.924964,15.3052137 C145.924964,15.3894839 145.847936,15.4476013 145.639675,15.4476013 C144.692518,15.4476013 143.591305,15.3894839 143.494307,15.3894839 C143.397309,15.3894839 142.21051,15.4476013 141.696991,15.4476013 C141.502995,15.4476013 141.411703,15.4069192 141.411703,15.3052137 C141.411703,15.2035083 141.44879,15.1860731 141.551494,15.1860731 C141.724879,15.1781747 141.896983,15.1518796 142.065013,15.1076146 C142.421623,15.0262503 142.515769,14.6862636 142.575679,14.1835482 C142.652707,13.4832337 142.652707,12.1494396 142.652707,10.4930941 L142.652707,3.33012625 L140.153582,3.36790255 C139.072339,3.3911495 138.658671,3.51029014 138.399058,3.91130011 C138.285894,4.08094639 138.190288,4.262077 138.11377,4.45179181 C138.07383,4.5941794 138.016772,4.61452049 137.934039,4.61452049 C137.863771,4.60687757 137.812062,4.54393189 137.81707,4.47213289 C137.81707,4.29196899 138.170828,2.76929347 138.190798,2.62690587 C138.210768,2.48451827 138.304913,2.30726024 138.367677,2.30726024 C138.619052,2.3898495 138.875392,2.45585264 139.135102,2.50485936 C139.628651,2.56588261 140.296226,2.58331783 140.493075,2.58331783 L147.031882,2.58331783 C147.446871,2.58784682 147.861633,2.56162481 148.272886,2.50485936 C148.529646,2.46998893 148.689407,2.42349502 148.766435,2.42349502 C148.843463,2.42349502 148.843463,2.52520044 148.843463,2.62690587 C148.843463,3.14705648 148.786405,4.37042746 148.786405,4.57383832 C148.786405,4.71041417 148.706525,4.79468439 148.626644,4.79468439 C148.546763,4.79468439 148.509676,4.73366113 148.489706,4.50409745 L148.469735,4.32393355 C148.412678,3.80087708 148.036097,3.42020819 146.384278,3.37952602 L144.216087,3.34174972 L144.253174,10.4901883 Z" id="Shape" fill="#AD073D" fill-rule="nonzero"></path>
                    <path d="M151.496644,7.48261351 C151.496644,4.83246069 151.496644,4.35299225 151.456704,3.80959468 C151.416763,3.26619712 151.319765,2.93783389 150.749189,2.86518715 C150.61225,2.84775194 150.315551,2.82741085 150.158642,2.82741085 C150.086481,2.81514056 150.030796,2.75605822 150.021704,2.68211739 C150.021704,2.58331783 150.098732,2.54554153 150.306992,2.54554153 C151.097241,2.54554153 152.215571,2.5862237 152.30401,2.5862237 C152.392449,2.5862237 156.046993,2.60656478 156.44069,2.5862237 C156.703668,2.56673014 156.965514,2.53375516 157.225233,2.48742414 C157.305114,2.4728948 157.387848,2.40896567 157.464875,2.40896567 C157.541903,2.40896567 157.53905,2.48742414 157.53905,2.56878848 C157.53905,2.65015282 157.444905,2.88843411 157.404965,3.37080842 C157.384995,3.53063123 157.342201,4.29487486 157.305114,4.49537984 C157.287997,4.57674419 157.225233,4.67263787 157.145352,4.67263787 C157.065472,4.67263787 157.008414,4.59708527 157.008414,4.45469767 C157.007911,4.25114533 156.975157,4.04900991 156.911416,3.85608859 C156.791595,3.56550166 156.626128,3.45507863 155.670412,3.33303212 C155.385124,3.29234994 153.365283,3.27200886 153.165581,3.27200886 C153.088553,3.27200886 153.068583,3.33303212 153.068583,3.45217276 L153.068583,8.08412846 C153.068583,8.2032691 153.068583,8.26719823 153.165581,8.26719823 C153.3824,8.26719823 155.670412,8.26719823 156.06411,8.22651606 C156.457808,8.18583389 156.731684,8.16839867 156.919975,7.9853289 C157.036943,7.86618826 157.116824,7.76448283 157.176734,7.76448283 C157.236645,7.76448283 157.276585,7.80516501 157.276585,7.90396456 C157.214271,8.21602484 157.168558,8.53128697 157.139647,8.84837209 C157.096853,9.1883588 157.059766,9.83055592 157.059766,9.94969657 C157.059766,10.0688372 157.019826,10.2722481 156.902857,10.2722481 C156.785889,10.2722481 156.783036,10.2112248 156.783036,10.1124252 C156.791932,9.92199464 156.764814,9.73159712 156.703156,9.55159247 C156.646098,9.31040532 156.489189,9.10990033 155.818762,9.02853599 C155.345183,8.96751274 153.493662,8.94717165 153.196962,8.94717165 C153.164684,8.94217537 153.131996,8.95310905 153.10891,8.97662422 C153.085823,9.00013938 153.075089,9.03343428 153.079994,9.06631229 L153.079994,10.4901883 C153.079994,11.0713621 153.060024,13.0589767 153.079994,13.3960576 C153.119935,14.5409701 153.436605,14.7618162 155.145482,14.7618162 C155.59909,14.7618162 156.426426,14.7618162 156.882887,14.5816523 C157.339349,14.4014884 157.570432,14.0818427 157.66743,13.3960576 C157.710223,13.1984585 157.747311,13.1345293 157.847162,13.1345293 C157.947013,13.1345293 157.96413,13.2740111 157.96413,13.3960576 C157.915831,13.9482543 157.837734,14.4973252 157.730193,15.0407796 C157.610372,15.4824718 157.444905,15.4824718 156.765919,15.4824718 C155.465004,15.4824718 154.46079,15.4417896 153.750422,15.4243544 C153.040054,15.4069192 152.569328,15.3865781 152.32398,15.3865781 C152.286893,15.3865781 151.950253,15.3865781 151.573672,15.4040133 C151.197091,15.4214485 150.84904,15.4446955 150.569457,15.4446955 C150.395431,15.4446955 150.284169,15.4040133 150.284169,15.3023079 C150.282531,15.2648284 150.296432,15.2283731 150.322476,15.2018449 C150.348521,15.1753168 150.384311,15.1611579 150.421107,15.1628261 C150.599399,15.1463273 150.776584,15.119159 150.951744,15.0814618 C151.285531,15.0204385 151.325471,14.6804518 151.405352,14.1777364 C151.503009,12.9502671 151.53634,11.718367 151.505203,10.4872824 L151.496644,7.48261351 Z" id="Shape" fill="#AD073D" fill-rule="nonzero"></path>
                    <path d="M161.193593,7.34483278 C161.193593,4.69467996 161.193593,4.21521152 161.153653,3.67181395 C161.113713,3.12841639 161.016715,2.80005316 160.446138,2.72740642 C160.3092,2.70997121 160.0125,2.68963012 159.858444,2.68963012 C159.786073,2.67885346 159.729233,2.62095818 159.718653,2.54724252 C159.718653,2.44844297 159.795681,2.41066667 160.003941,2.41066667 C160.791337,2.41066667 161.95246,2.45134884 162.052311,2.45134884 C162.232043,2.45134884 163.687013,2.41066667 164.220502,2.41066667 C165.324568,2.41066667 166.542749,2.51237209 167.452819,3.15166334 C168.181817,3.69810064 168.624494,4.55491376 168.653882,5.4763588 C168.653882,6.74041196 168.140363,7.96378295 166.528485,9.3702237 C167.954926,11.1747685 169.147431,12.7177852 170.151646,13.7842392 C171.078833,14.7460819 171.649409,14.9059048 172.085901,14.966928 C172.286047,15.0071953 172.489551,15.0276317 172.693565,15.0279513 C172.773473,15.0259422 172.841616,15.0865173 172.850473,15.167433 C172.850473,15.2691384 172.750622,15.3098206 172.436805,15.3098206 L171.355563,15.3098206 C170.368465,15.3098206 169.929121,15.211021 169.501189,14.9698339 C168.753733,14.5659181 168.123246,13.743557 167.136149,12.4591628 C166.408663,11.5380022 165.638385,10.4250543 165.264657,9.97173865 C165.209093,9.8990442 165.120696,9.86061303 165.030721,9.87003322 L162.82259,9.82935105 C162.745562,9.82935105 162.702768,9.87003322 162.702768,9.96883278 L162.702768,10.3698427 C162.702768,12.0174707 162.702768,13.3396412 162.782649,14.0399557 C162.839707,14.5426711 162.939558,14.8652226 163.470194,14.9436811 C163.724996,14.9874409 163.982277,15.0146174 164.240472,15.0250454 C164.277847,15.0200316 164.315358,15.0332251 164.341732,15.0606602 C164.368105,15.0880953 164.380266,15.1265728 164.374558,15.1645271 C164.374558,15.2487973 164.300383,15.3069147 164.08927,15.3069147 C163.142112,15.3069147 162.0409,15.2487973 161.961019,15.2487973 C161.941049,15.2487973 160.779925,15.3069147 160.249289,15.3069147 C160.07241,15.3069147 159.964001,15.2662326 159.964001,15.1645271 C159.962363,15.1270477 159.976264,15.0905924 160.002308,15.0640642 C160.028353,15.037536 160.064143,15.0233771 160.100939,15.0250454 C160.281202,15.018388 160.460157,14.991095 160.634428,14.9436811 C160.968216,14.8652226 161.008156,14.5426711 161.085184,14.0399557 C161.180338,12.8123507 161.212715,11.580534 161.182182,10.3495017 L161.193593,7.34483278 Z M162.691357,8.79776744 C162.688584,8.88817683 162.73455,8.9728988 162.811178,9.01861351 C163.067938,9.16100111 163.952331,9.28014175 164.719757,9.28014175 C165.172197,9.31842999 165.625482,9.2171793 166.020671,8.98955482 C166.611218,8.58854485 167.064827,7.68481949 167.064827,6.37427243 C167.064827,4.25008195 165.923673,3.02380509 164.072152,3.02380509 C163.655574,3.02192052 163.239551,3.05496527 162.828295,3.12260465 C162.746268,3.15571185 162.692118,3.23614739 162.691357,3.3260155 L162.691357,8.79776744 Z" id="Shape" fill="#AD073D" fill-rule="nonzero"></path>
                </g>
            </g>
        </g>
    </g>
</svg>